@startuml Context_Diagram
title "Container diagram Desktop: Dungeon Master"

package DMSystem {
  component DataModel as systemdatamodel
  component IO as systemio 
  component Editors as systemgui
  component Displays as systemDisplay
  component WebWrite as systemWebcom
  component WebRead as systemWebcomRead
  systemio --> systemdatamodel
  systemgui --> systemdatamodel
  systemDisplay --> systemdatamodel
  systemWebcom --> systemdatamodel
  systemWebcomRead --> systemdatamodel
  systemWebcom --> systemio
  systemWebcomRead --> systemio
}
package Adventure {
  component DataModel
  component IO
  component WebWrite as AdventureWebWrite
  component WebRead as AdventureWebRead
  component Editors as AdventureEditors
  component Displays as AdventureDisplays
  IO --> DataModel
  AdventureWebRead --> DataModel
  AdventureWebWrite --> DataModel
  AdventureEditors --> DataModel
  AdventureWebRead --> IO
  AdventureWebWrite --> IO
  AdventureDisplays --> DataModel
}

DataModel --> systemdatamodel
AdventureEditors --> systemDisplay
IO --> systemio

package Gaming {
  component DataModel as gamingDataModel
  component IO as gamingIO
  component Gui as gamingGui
  component Web as gamingWeb
  gamingIO --> gamingDataModel
  gamingGui --> gamingDataModel
  gamingWeb --> gamingDataModel
}

gamingDataModel --> DataModel
gamingIO --> IO

node "Dungeon Master\nAdmin" as dm_admin

dm_admin --> systemgui
dm_admin --> systemDisplay
dm_admin --> systemWebcom
dm_admin --> systemWebcomRead

node "Dungeon Master\nDM" as dm_dm

dm_dm --> AdventureEditors
dm_dm --> AdventureWebRead
dm_dm --> AdventureWebWrite
dm_dm --> systemDisplay
dm_dm --> gamingGui
dm_dm --> gamingIO
dm_dm --> gamingWeb

node "Dungeon Master\nPlayer" as dm_player
dm_player --> AdventureWebRead
dm_player --> AdventureDisplays
dm_player --> systemDisplay
dm_player --> systemWebcomRead
dm_player --> gamingGui
dm_player --> gamingIO
dm_player --> gamingWeb

package Webserver {
  component Webserver as ws
  interface read as webserverread
  interface write as webserverwrite
  ws -- webserverread
  ws -- webserverwrite
}

webserverread --- AdventureWebRead
webserverwrite --- AdventureWebWrite
webserverread --- systemWebcomRead
webserverwrite --- systemWebcom
webserverread --- gamingWeb
webserverwrite --- gamingWeb
@enduml